<svg width="443" height="94" viewBox="0 0 443 94" fill="none" xmlns="http://www.w3.org/2000/svg">
<rect x="277.928" y="100.871" width="33.8789" height="165.072" rx="16.9394" transform="rotate(-90 277.928 120.871)" fill="#12A4B6"/>
<rect x="-1.26599" y="1.26599" width="21.1621" height="21.1621" rx="5.06397" transform="matrix(-1 0 0 1 65.4902 46.0537)" stroke="#12A4B6" stroke-width="2.53199"/>
<rect x="-1.26599" y="1.26599" width="41.6136" height="21.1621" rx="5.06397" transform="matrix(-1 0 0 1 34.5881 77.1489)" stroke="#12A4B6" stroke-width="2.53199"/>
<rect width="44.1456" height="23.694" rx="6.32996" transform="matrix(-1 0 0 1 86.7839 77.1489)" fill="#12A4B6"/>
<rect x="-1.26599" y="1.26599" width="10.7116" height="44.8561" rx="1.68799" transform="matrix(-1 0 0 1 34.5881 22.3599)" stroke="#12A4B6" stroke-width="2.53199"/>
<rect x="-0.843995" y="0.843995" width="11.5556" height="6.62371" rx="2.10999" transform="matrix(-1 0 0 1 35.4321 11.2891)" stroke="#12A4B6" stroke-width="1.68799"/>
<rect x="-0.843995" y="0.843995" width="11.5556" height="6.62371" rx="1.26599" transform="matrix(-1 0 0 1 14.9802 25.1204)" stroke="#12A4B6" stroke-width="1.68799"/>
<rect width="44.1456" height="17.3823" rx="2.10999" transform="matrix(-1 0 0 1 16.458 0.528564)" fill="#12A4B6"/>
<rect width="13.535" height="17.3823" rx="4.21998" transform="matrix(-1 0 0 1 57.863 23.2913)" fill="#12A4B6"/>
<rect width="6.91313" height="9.98128" rx="1.26599" transform="matrix(-1 0 0 1 81.5571 59.7668)" fill="#12A4B6"/>
<rect width="23.6939" height="29.1067" rx="1.26599" transform="matrix(-1 0 0 1 16.6682 40.6414)" fill="#12A4B6"/>
</svg>
