<svg width="442" height="96" viewBox="0 0 442 96" fill="none" xmlns="http://www.w3.org/2000/svg">
<rect x="0.286621" y="17.81885" width="33.8789" height="165.072" rx="16.9394" transform="rotate(-90 0.286621 7.81885)" fill="#12A4B6"/>
<rect x="1.26599" y="-1.26599" width="21.1621" height="21.1621" rx="5.06397" transform="matrix(1 0 0 -1 376.481 47.2378)" stroke="#12A4B6" stroke-width="2.53199"/>
<rect x="1.26599" y="-1.26599" width="41.6136" height="21.1621" rx="5.06397" transform="matrix(1 0 0 -1 407.383 16.1426)" stroke="#12A4B6" stroke-width="2.53199"/>
<rect width="44.1456" height="23.694" rx="6.32996" transform="matrix(1 0 0 -1 357.719 18.6746)" fill="#12A4B6"/>
<rect x="1.26599" y="-1.26599" width="10.7116" height="44.8561" rx="1.68799" transform="matrix(1 0 0 -1 407.383 70.9316)" stroke="#12A4B6" stroke-width="2.53199"/>
<rect x="0.843995" y="-0.843995" width="11.5556" height="6.62371" rx="2.10999" transform="matrix(1 0 0 -1 407.383 82.8464)" stroke="#12A4B6" stroke-width="1.68799"/>
<rect x="0.843995" y="-0.843995" width="11.5556" height="6.62371" rx="1.26599" transform="matrix(1 0 0 -1 427.835 69.0151)" stroke="#12A4B6" stroke-width="1.68799"/>
<rect width="44.1456" height="17.3823" rx="2.10999" transform="matrix(1 0 0 -1 428.045 95.2949)" fill="#12A4B6"/>
<rect width="13.535" height="17.3823" rx="4.21998" transform="matrix(1 0 0 -1 386.64 72.5322)" fill="#12A4B6"/>
<rect width="6.91313" height="9.98128" rx="1.26599" transform="matrix(1 0 0 -1 362.946 36.0566)" fill="#12A4B6"/>
<rect width="23.6939" height="29.1067" rx="1.26599" transform="matrix(1 0 0 -1 427.835 55.1821)" fill="#12A4B6"/>
</svg>